<?xml version="1.0" encoding="UTF-8"?>
<svg version="1.1" viewBox="0 0 1344 1292" width="1280" height="1280" xmlns="http://www.w3.org/2000/svg">
<path transform="translate(666,151)" d="m0 0h16l17 3 17 5 15 8 16 12 12 11 10 13 8 13 6 15 6 21 2 14v17l-3 17-6 19-5 12-7 12-9 11-9 10-14 12-22 12-16 6h-2v2h77l14 15 41 41 8 7 8 8 2 6h-64l-40 1 7 5 7 8 10 11 8 7 7 8 26 26 8 6 106 1 60 60 8 7 6 8v1l-103 1 5 5 9 10 8 7 7 8 24 24 8 7 9 10 3 4v136l72-1 1-94 27-1h29l20 1 8 7 17 17 8 7 44 44 8 7 10 10 2 3 1 6-2 18-5 17-11 23-8 12-14 15-13 11-14 8-20 9-16 4-18 2-21-1-19-4-24-11-14-9-14-12-8-9-12-17-7-15-6-21-3-24h-65l-8-1-1-1v-211l-8-7-61-61-5-2v281l-1 1h-75l-1-1v-360l-13-1-60-1 1 348 7 8 66 66 1 2v105h-3l-145-145-2-3-1-424-18-18-5-6-8-7-158-158-4-3 1-4 9-8 22-15 15-10 13-7h5l27 27 8 7 26 26v2l4 2 12 12 5 6 8 7 7 7v2l3 1 17 17v2l4 2 4 4v2l4 2 16 16v2l4 2 8 8 7 8 5 4v2l4 2 8 9 8 7 14 14-1-7v-236z"/>
<path transform="translate(343,287)" d="m0 0 4 2 9 9 8 7 8 9 8 7 13 14 8 7 12 13 8 7 12 13 8 7 12 13 8 7 4 5 7 6v2l4 2 8 8 5 6 8 7 16 16 5 6v322l-4-2-9-8-7-8-17-17-6-7-8-7-9-10-36-36-6-7-7-6-7-8-55-55-7-8-71-71-8-10-1-2v-25l4-32 4-22 4-13 5 1 4 4v2l3 1 5 5v2l4 2v2l4 2v2l4 2v2l3 1 9 9v2h2l7 8 44 44 7 6v2l3 1 5 6 49 49 8 7 4 3-1-24v-77l-7-8-23-23-7-6v-2h-2l-7-8-13-12-7-8-10-9-11-12-8-7-14-15-7-6-7-8-15-14-1-5 8-13 12-19 8-12z"/>
<path transform="translate(261,628)" d="m0 0 8 6 8 7 27 27 7 8 10 9 7 8 7 7 5 4 7 8 8 8 5 4 7 8 374 374 1 2v105l-5-2-121-121v-2l-4-2-16-16-4-5-8-7-8-8v-2l-4-2-36-36v-2l-4-2-34-34-6-7-8-7-7-7-5-6-8-7-12-13-8-7-12-13-8-7-12-13-10-9-9-10-10-9-11-12-10-9-9-10-10-9-82-82-1-2v-104z"/>
</svg>
